<!DOCTYPE svg PUBLIC "-//W3C//DTD SVG 1.1//EN" "http://www.w3.org/Graphics/SVG/1.1/DTD/svg11.dtd">
<!-- Uploaded to: SVG Repo, www.svgrepo.com, Transformed by: SVG Repo Mixer Tools -->
<svg width="64px" height="64px" viewBox="0 0 16 16" xmlns="http://www.w3.org/2000/svg" fill="#000000" class="bi bi-reply" stroke="#000000" stroke-width="0.00016">
<g id="SVGRepo_bgCarrier" stroke-width="0"/>
<g id="SVGRepo_tracerCarrier" stroke-linecap="round" stroke-linejoin="round" stroke="#CCCCCC" stroke-width="0.064"/>
<g id="SVGRepo_iconCarrier"> <path d="M6.598 5.013a.144.144 0 0 1 .202.134V6.3a.5.5 0 0 0 .5.5c.667 0 2.013.005 3.3.822.984.624 1.99 1.76 2.595 3.876-1.02-.983-2.185-1.516-3.205-1.799a8.74 8.74 0 0 0-1.921-.306 7.404 7.404 0 0 0-.798.008h-.013l-.005.001h-.001L7.3 9.9l-.05-.498a.5.5 0 0 0-.45.498v1.153c0 .108-.11.176-.202.134L2.614 8.254a.503.503 0 0 0-.042-.028.147.147 0 0 1 0-.252.499.499 0 0 0 .042-.028l3.984-2.933zM7.8 10.386c.068 0 .143.003.223.006.434.02 1.034.086 1.7.271 1.326.368 2.896 1.202 3.94 3.08a.5.5 0 0 0 .933-.305c-.464-3.71-1.886-5.662-3.46-6.66-1.245-.79-2.527-.942-3.336-.971v-.66a1.144 1.144 0 0 0-1.767-.96l-3.994 2.94a1.147 1.147 0 0 0 0 1.946l3.994 2.94a1.144 1.144 0 0 0 1.767-.96v-.667z"/> </g>
</svg>